<svg width="131" height="22" fill="none" xmlns="http://www.w3.org/2000/svg"><path fill-rule="evenodd" clip-rule="evenodd" d="M121.664 4.601l-4.091 4.205c-.522.575-1.082.515-1.54.056l-3.857-4.045a4.025 4.025 0 00-.157-.18c-.174-.19-.356-.388-.356-.623 0-.37.435-.555 1.46-.555h1.008V.804H99.977V3.46c3.12 0 3.327.244 4.221 1.296.111.131.233.275.372.432l7.624 8.116v4.106c0 1.05-.552 1.42-2.129 1.42h-2.443v2.56h15.651v-2.56h-2.444c-1.578 0-2.128-.37-2.128-1.42v-4.106l6.472-6.727c2.366-2.87 2.681-3.117 4.377-3.117h1.468V.804h-11.174V3.46h1.032c.868 0 1.143.124 1.143.432 0 .185-.117.401-.355.71zM26.02.804h-3.415c.01 1.7-.67 1.646-1.394 1.193C18.596.574 15.87.155 12.615.155 4.887.155 0 2.81 0 7.038c0 4.074 3.863 5.215 9.17 5.987l4.702.741c5.538.833 7.257 1.204 7.257 2.746 0 1.544-1.738 2.607-6.792 2.655-3.351.032-7.007-.957-8.542-2.315-.175-.153-.353-.29-.532-.43-.724-.56-1.453-1.127-2.014-2.687H.083v7.654h3.5c.15-1.076.486-1.934 1.28-1.493 2.532 1.294 6.824 2.14 9.66 2.14 8.192 0 12.754-2.499 12.754-6.974 0-4.967-7.139-5.848-13.15-6.59-4.371-.54-8.147-1.005-8.147-2.916 0-1.634 3.143-2.746 6.867-2.746 2.885 0 6.315 1.166 7.9 2.567.136.12.274.237.412.352.748.626 1.472 1.231 1.707 2.482h3.154V.804zm63.286 4.169l-.068 8.232L75.665.96H64.467v2.561h2.146c1.669 0 2.252.37 2.252 1.45v12.593c0 1.049-.583 1.45-2.252 1.45h-2.146v2.53H77.42v-2.53h-2.17c-1.668 0-2.252-.4-2.252-1.45V7.102L88.805 21.51l4.88.037V4.973c0-1.08.585-1.45 2.254-1.45h1.626V.96H85.094v2.561h1.96c1.668 0 2.252.37 2.252 1.45zm-58.002 6.045C31.304 4.228 37.525 0 47.464 0c9.55 0 16.031 4.321 16.03 10.679 0 7.068-6.006 11.202-16.333 11.202-9.722 0-15.857-4.196-15.857-10.863zm7.27-.154c0 5.278 3.163 8.333 8.664 8.333 5.639 0 8.847-2.932 8.847-8.116 0-5.309-3.162-8.427-8.572-8.427-5.639 0-8.938 3.056-8.938 8.21z" fill="#000"/></svg>